<?xml version="1.0" standalone="no"?>
<!DOCTYPE svg PUBLIC "-//W3C//DTD SVG 20010904//EN"
 "http://www.w3.org/TR/2001/REC-SVG-20010904/DTD/svg10.dtd">
<svg version="1.0" xmlns="http://www.w3.org/2000/svg"
 width="1148.000000pt" height="1148.000000pt" viewBox="0 0 1148.000000 1148.000000"
 preserveAspectRatio="xMidYMid meet">
<metadata>
Created by potrace 1.11, written by Peter Selinger 2001-2013
</metadata>
<g transform="translate(0.000000,1148.000000) scale(0.100000,-0.100000)"
fill="#000000" stroke="none">
<path d="M6959 10959 c-1065 -665 -2170 -1509 -2728 -2085 -542 -559 -785
-1068 -875 -1834 -37 -311 -41 -413 -41 -1060 0 -697 3 -755 62 -1450 31 -362
37 -469 37 -720 1 -247 -2 -311 -18 -395 -82 -445 -338 -773 -892 -1145 -150
-101 -389 -245 -583 -350 -114 -62 -135 -77 -147 -107 -28 -66 18 -137 90
-137 33 0 168 70 464 241 505 292 954 608 1366 962 234 202 708 695 839 873
31 43 213 131 387 188 158 52 476 128 775 185 613 117 1006 234 1330 397 129
64 219 116 275 158 19 14 72 54 118 88 45 34 82 57 82 51 0 -11 -91 -150 -163
-249 -232 -319 -566 -630 -952 -887 -419 -279 -948 -510 -1541 -673 -143 -39
-560 -131 -654 -145 -126 -18 -278 -50 -297 -63 -34 -22 -48 -84 -28 -126 19
-40 32 -46 197 -85 480 -114 912 -415 1533 -1067 405 -425 729 -693 1014 -838
255 -129 582 -215 1011 -263 219 -24 820 -24 1075 1 458 44 929 133 1221 232
176 59 211 77 231 119 17 35 17 42 -10 201 -65 384 -192 804 -340 1124 -157
340 -394 686 -637 929 -515 515 -1170 775 -1885 747 -93 -3 -190 -10 -214 -15
-114 -23 -145 -121 -58 -185 25 -18 38 -20 100 -16 136 9 482 5 567 -8 109
-16 360 -73 360 -82 0 -4 -33 -12 -72 -19 -90 -16 -352 -102 -513 -169 -120
-50 -444 -195 -500 -224 -61 -32 -308 -119 -427 -152 l-123 -33 -130 18 c-209
29 -445 49 -657 56 -109 3 -198 9 -198 12 0 3 30 17 68 29 219 77 633 275 870
417 487 293 953 738 1255 1197 117 179 180 289 266 470 241 504 376 1054 422
1713 15 216 6 770 -15 995 -78 802 -273 1604 -578 2368 -152 382 -380 841
-449 905 -52 48 -74 41 -290 -94z m107 -196 c-3 -10 -19 -79 -35 -153 -53
-239 -120 -492 -166 -627 -25 -73 -45 -139 -45 -148 0 -22 45 -65 69 -65 11 0
32 10 46 23 43 37 119 289 200 667 20 91 41 188 47 217 6 29 15 50 20 47 12
-8 96 -176 174 -352 161 -357 324 -820 429 -1212 l44 -165 -38 -97 c-50 -126
-112 -231 -208 -347 -94 -114 -186 -197 -449 -401 -252 -197 -381 -308 -519
-451 -112 -116 -247 -276 -323 -383 -23 -33 -42 -53 -42 -45 0 8 23 88 50 179
139 454 332 1213 323 1264 -15 78 -112 111 -170 56 -26 -24 -31 -39 -114 -385
-73 -308 -182 -700 -305 -1099 l-89 -290 -12 234 c-19 382 -39 508 -164 1030
-147 615 -154 661 -154 1045 1 224 5 316 18 403 10 62 20 118 23 125 18 44
1333 945 1382 947 8 0 11 -7 8 -17z m-1550 -1076 c-3 -13 -12 -107 -21 -208
-29 -363 6 -654 145 -1211 150 -596 196 -974 171 -1407 -18 -330 -26 -375 -91
-551 -191 -516 -457 -1061 -774 -1590 l-111 -185 -6 260 c-11 417 -39 629
-140 1045 -37 151 -89 310 -335 1035 -132 389 -183 603 -224 940 -19 155 -22
209 -16 385 3 113 10 222 15 243 22 94 410 478 882 873 190 159 489 394 501
394 6 0 8 -11 4 -23z m2403 -994 c68 -325 151 -902 151 -1043 0 -56 -170 -250
-388 -441 -182 -160 -392 -317 -677 -506 -140 -92 -245 -159 -695 -438 -202
-126 -370 -235 -452 -295 -32 -22 -58 -39 -58 -36 0 3 27 74 61 158 33 84 94
243 134 354 84 230 96 257 216 455 278 464 538 754 990 1104 226 175 366 293
434 366 72 78 172 217 223 311 20 37 40 68 43 68 3 0 12 -26 18 -57z m-3941
-620 c4 -459 62 -736 297 -1413 301 -865 376 -1188 405 -1736 13 -249 -2 -614
-27 -654 -20 -32 -263 -354 -302 -400 l-29 -34 -6 129 c-35 674 -129 1175
-346 1840 -58 179 -124 390 -174 557 -78 259 -153 649 -176 913 l-11 120 35
125 c42 154 90 285 150 414 49 105 165 306 176 306 4 0 7 -75 8 -167z m4112
-907 c0 -673 -91 -1205 -302 -1763 -44 -116 -58 -142 -113 -205 -270 -314
-638 -548 -1111 -707 -274 -92 -438 -132 -1043 -256 -325 -66 -468 -101 -633
-154 -67 -22 -124 -39 -125 -37 -2 2 35 59 82 127 115 164 250 377 370 579 98
165 381 712 426 824 17 41 39 72 74 104 109 99 339 258 660 457 449 279 600
375 769 488 184 124 419 296 535 393 79 66 369 352 382 377 24 44 29 8 29
-227z m-4525 -459 c37 -193 107 -449 201 -739 298 -918 385 -1371 400 -2068
l6 -245 -154 -163 c-190 -202 -572 -561 -556 -522 4 8 23 52 43 97 47 106 79
237 100 403 24 188 16 538 -24 995 -64 739 -65 774 -66 1545 0 630 5 843 21
827 3 -2 16 -61 29 -130z m4880 -3397 c118 -58 260 -151 244 -160 -8 -4 -37
-10 -65 -13 -69 -8 -207 -48 -408 -119 -158 -57 -171 -60 -207 -49 -116 35
-322 31 -447 -7 l-62 -20 0 30 c0 40 -17 68 -40 68 -26 0 -40 -29 -40 -84 0
-44 -2 -47 -42 -67 -24 -12 -67 -37 -96 -56 l-54 -34 -50 51 c-28 27 -53 50
-54 50 -1 0 -9 -3 -18 -6 -28 -11 -18 -52 25 -99 38 -41 39 -44 20 -54 -15 -8
-53 -3 -163 24 -79 19 -162 37 -185 41 -24 4 -43 9 -43 13 0 4 35 19 78 35 42
16 176 74 297 129 579 262 734 314 1082 362 54 7 109 11 123 9 14 -3 61 -22
105 -44z m495 -351 c324 -294 616 -751 794 -1246 57 -156 146 -462 146 -500 0
-7 -49 36 -108 96 -130 130 -188 168 -235 154 -17 -5 -38 -20 -46 -34 -24 -43
-8 -73 66 -123 111 -73 235 -208 352 -379 l32 -47 -24 -9 c-124 -47 -398 -120
-560 -149 l-107 -20 -19 27 c-35 49 -101 161 -101 171 0 9 -146 267 -317 560
-86 148 -183 301 -270 429 l-85 124 68 -38 c183 -101 352 -217 515 -352 83
-69 106 -83 135 -83 70 0 114 43 114 113 0 27 -12 43 -74 102 -130 124 -382
297 -612 420 l-92 49 50 29 c60 34 103 99 119 178 l11 57 60 25 c45 20 59 30
56 44 -3 15 -13 18 -65 16 -67 -2 -64 -4 -78 67 -12 60 -67 151 -131 215 -59
59 -61 62 -45 82 11 15 45 28 111 43 52 12 115 28 140 35 95 27 113 22 200
-56z m-3145 -239 l120 -10 33 -37 c153 -174 374 -666 653 -1458 22 -60 44
-119 50 -130 29 -49 96 -235 85 -235 -18 0 -179 94 -271 158 -173 119 -306
242 -725 662 -602 604 -803 769 -1157 947 -73 37 -131 68 -130 69 5 5 378 36
527 44 188 10 636 4 815 -10z m476 -45 c131 -15 263 -37 462 -76 108 -21 117
-25 117 -46 0 -23 4 -25 83 -38 20 -3 37 -8 37 -10 0 -2 -8 -26 -19 -52 -59
-151 -68 -404 -18 -556 90 -276 358 -446 704 -447 l112 0 5 -32 c3 -18 7 -44
8 -57 4 -32 31 -49 52 -32 12 10 16 31 16 77 0 54 3 64 18 64 9 0 48 11 85 24
l68 24 8 -21 c118 -304 285 -624 383 -733 19 -21 57 -63 83 -91 42 -47 45 -54
29 -60 -32 -12 -659 -8 -799 5 -262 26 -632 95 -747 141 -29 11 -65 78 -103
191 -20 59 -64 181 -194 540 -190 521 -342 872 -470 1085 -38 63 -64 115 -57
115 6 0 68 -7 137 -15z m2138 -852 c16 -23 18 -31 7 -27 -19 7 -47 50 -39 58
4 3 7 5 8 4 1 -2 12 -18 24 -35z m0 -93 c15 0 25 7 28 20 5 18 11 13 41 -32
39 -57 285 -467 420 -700 46 -79 107 -181 137 -228 29 -47 54 -90 54 -97 1
-16 -13 -19 -202 -43 -166 -21 -168 -21 -195 -2 -46 34 -144 144 -210 238 -64
91 -268 487 -289 559 -6 22 -18 66 -27 97 l-17 57 88 88 88 88 31 -22 c17 -13
41 -23 53 -23z"/>
</g>
</svg>
