<svg version="1" xmlns="http://www.w3.org/2000/svg" width="533.333" height="533.333" viewBox="0 0 400.000000 400.000000"><path d="M242.7 28c-19.6 10.5-67.8 46.2-88.4 65.5-21.6 20-31.4 38.5-35.5 66.3-1.9 12.6-1.5 63.1.5 85.5 2.7 28.6 2.2 36.9-3.2 48.2-5.4 11.4-18.5 23-39.2 34.6-11 6.2-12.7 8.2-9.5 10.8 1.1 1 2.7.6 7.5-1.8 23.1-11.7 52.1-33 69.4-51 5.3-5.5 10.6-11.5 11.9-13.2 4.2-5.6 13.4-9 39.8-14.5 9.6-2 21.3-4.7 26-6.1 10-2.9 23.6-9.1 28.8-13.1 6.4-5 6.7-4.7 2.1 1.9-6.2 9-20 22.4-30.5 29.5-18.8 12.9-43.4 22.8-69.1 27.9-7 1.4-13.8 2.7-14.9 3-3.3.7-3.9 3.7-1.4 5.7 1.2 1 3.2 1.8 4.4 1.8 3.8.1 16.2 5.6 23.7 10.6 4.3 2.8 15.4 12.6 26.4 23.4 21.4 21 26.8 25.4 37.5 30.4 11.4 5.5 22.7 7.6 42.6 8.3 25 .8 51.5-2.6 67.7-8.7 5.4-2 5.7-2.3 5.7-5.6 0-5.1-2.8-17.7-6-27.6-9.5-28.5-27.1-50.3-49.5-61.6-10.9-5.4-18.9-7.4-32.7-7.9-15.7-.7-18-.2-17.6 3.5l.3 2.7 14 .7c7.7.3 15.3 1 17 1.5 2.9.9 2.6 1.1-5 3.5-4.4 1.5-14.1 5.3-21.5 8.6-19.4 8.6-19.5 8.6-38.9 7.1-12.7-.9-15.9-1.5-14.1-2.2 9.4-3.8 26.7-12.6 33.4-17.2 9.2-6.2 24-20.2 30.7-29 19.4-25.7 28.2-54.8 28.1-93.5 0-27.4-4.3-52.6-13.8-82.1C263 54 251 28 247.6 26.7c-.8-.3-3 .3-4.9 1.3zm-1.2 12.7c-.3 2.1-2 8.5-3.7 14.3-1.7 5.8-3.3 11.3-3.5 12.2-.8 2.6 2.7 3.6 4.3 1.3 1.6-2.2 3.9-9.8 6-20.2.9-4.3 1.9-8.2 2.3-8.6 2-2.1 19.2 42.5 20.7 53.6.5 3.1.1 5.3-1.1 7.8-3.2 6.2-8.8 12.8-15.4 18.1-15.6 12.4-23.4 19.4-28.2 25.4-2.9 3.5-5.4 6.3-5.5 6.1-.2-.2 1.3-5.9 3.2-12.7 8.9-31.6 9.4-36 4.3-36-2.4 0-3.3 1.9-5.3 11-1.9 8.2-9.7 36.2-11.9 42.5l-1.4 4-.7-8.5c-.9-10.4-2.8-20.7-6.7-36.5-3.2-12.9-4.8-31.4-3.5-41.6.7-5.2.9-5.5 6.9-9.9 11.9-8.5 38.1-26 39-26 .5 0 .6 1.6.2 3.7zm-51 46.5c.1 14.4.3 16.3 4.3 32.8 5.1 21.6 6.6 34 5.7 48.5-.6 9.5-1.3 12.4-4.7 21-5.3 13.4-15.3 33.9-22 45.3l-5.5 9.3-.6-13.8c-.8-17.2-3.2-28.3-12.6-56-7.8-23.3-9.9-32.4-10.8-46.3-.8-13.6-.2-14.8 13-27.7 8.1-7.8 32.1-28.3 33.1-28.3.1 0 .1 6.9.1 15.2zM274 124c1.1 7.4 2 14.5 2 15.7 0 5.4-18.1 21-41.5 36-8.2 5.2-19 12.2-24 15.4-4.9 3.2-9 5.7-9.2 5.6-.5-.5 9.6-25.8 11.8-29.4 9.2-15.4 19-26.2 36.8-40.6 9.5-7.6 13.3-11.5 16.5-16.4l4.1-6.5.7 3.4c.4 1.8 1.6 9.4 2.8 16.8zm-131.2 28.5c1.2 4.4 5.1 16.7 8.7 27.3 9.1 27 10.8 35.8 10.9 56.2l.1 16.6-5.5 7.4-5.5 7.4-.7-9.4c-1.6-21.2-4-32.7-12.4-59.8-6.6-20.9-10.4-37.9-10.4-46.1 0-6.8 3.4-17.5 8.4-26.1l3.1-5.5.6 12c.4 7.1 1.5 15.3 2.7 20zm133.4 15.2c-1.8 24.7-7.1 46-13.6 54.6-4.1 5.4-15.2 13.8-24.1 18.1-10.2 5-20.1 8-42.3 12.7-10.8 2.3-22 4.9-24.9 5.9-3.1 1-5 1.3-4.6.6.4-.6 3.3-4.9 6.4-9.6 6.7-10.1 15.7-26.2 19.7-35.1 3.5-7.7 7.2-11.2 21-19.9 36.4-23 51.1-33.5 58.2-41.7 2-2.2 3.9-3.6 4.4-3.2.6.5.5 7.3-.2 17.6zm-143.3 30.1c9 28.8 11.7 41.9 12.8 62.9l.6 12.2-4.6 5.4c-2.5 3-7.7 8.2-11.5 11.5l-6.9 6.1 2-5.7c2.8-8.3 3.2-23.4 1.3-45.2-1.9-21-3.3-68.2-2.1-72.6.7-2.7.8-2.4 2 3.1.7 3.3 3.6 13.4 6.4 22.3zm159.4 89.8c3.5 2.3 3.9 2.9 2.2 3.2-1.1.2-5.5 1.5-9.7 2.8-9.2 3-27.8 4-27.8 1.6 0-2.1-2.5-.8-2.8 1.4-.1 1-1.7 2.7-3.4 3.7-2.9 1.7-3.3 1.7-4.4.3-1.1-1.5-3.4-2.2-3.4-1 0 .3.5 1.4 1.1 2.6 1 1.9.9 2-3.3 1.3-2.3-.4-5.2-1.1-6.3-1.5-1.8-.7-1.8-.8.5-1.5 1.4-.4 8.5-3.4 15.8-6.7 15-6.6 26.6-9.9 33-9.4 2.5.2 5.9 1.5 8.5 3.2zm16.4 13.6c6.8 7 12.5 15.2 17.2 24.6 3.2 6.3 10.1 25.7 10.1 28.3 0 .7-2-.6-4.4-3-2.7-2.7-5.1-4.2-6.2-3.9-3.3.6-2.6 3.2 1.9 6.8 4.5 3.5 11.3 11.7 10.5 12.5-.2.3-5.3 1.7-11.2 3.2-12.8 3.2-10.5 4.7-20.3-13.1-3.6-6.6-8.5-15.1-11-18.9-2.4-3.8-4.2-7.1-4-7.3.5-.5 13.3 8.1 17.5 11.7 1.8 1.6 3.7 2.9 4.2 2.9 1.3 0 4-3 4-4.5 0-2-7.6-8.2-17.4-14.1-7.6-4.6-8.2-5.2-6.4-6.3 1.1-.7 2.4-2.5 3-4.2.5-1.6 1.9-3.4 2.9-4 2.4-1.2 1.5-3.2-1.1-2.4-1.3.4-1.9-.1-2.3-2.3-.3-1.6-1.8-4.4-3.3-6.1-1.4-1.8-2.5-3.4-2.2-3.6.6-.6 7.8-2.3 10.3-2.4 1.3-.1 4.4 2.3 8.2 6.1zm-101.9 8c4.6 6.8 8.5 15.1 15 32.3 3.3 8.8 7 18.1 8.1 20.7 1.1 2.7 1.7 4.8 1.2 4.8-3.1 0-16.4-11-33.1-27.4-21.1-20.8-24.4-23.6-34.5-29.5-6.3-3.7-6.5-4-3.9-4.4 1.6-.2 12.2-.5 23.6-.6l20.7-.1 2.9 4.2zM225 308c8.4 1.4 14.2 4 13.3 6-.3.8-.8 4.6-1.1 8.3-.5 8.5 1.5 14.3 6.7 19 4.4 4 8.6 5.6 15.6 5.9 4 .2 5.1.7 5.5 2.2.8 3 3 3.2 3 .3 0-1.9.8-2.8 3-3.6 2.1-.7 3-.7 3 .1 0 2.9 9.3 20.2 13 24.2l4.3 4.6-6.9.1c-15 .1-22.3-.2-31.2-1.7-13.2-2-15.5-3.2-17.2-8.5-5.8-18.1-14.3-38.9-23.8-58.2-.2-.5 1.1-.6 2.9-.3 1.9.3 6.3 1 9.9 1.6zm70.2 40.2c3.5 5.9 8.2 13.8 10.6 17.5 4.8 7.7 4.6 8.1-4.4 8.2-4 .1-5.5-.4-7.1-2.2-3.9-4.2-10.2-14.8-12.9-21.8l-2.7-6.9 2.6-2.8c4.9-5.1 6.8-4 13.9 8z"/></svg>